<?xml version="1.0" encoding="utf-8"?>
<svg xmlns="http://www.w3.org/2000/svg" width="1200" height="420" viewBox="0 0 1200 420" role="img" aria-label="FlowstackBD logo white">
  <defs>
    <filter id="drop" x="-50%" y="-50%" width="200%" height="200%">
      <feDropShadow dx="0" dy="6" stdDeviation="10" flood-color="#000" flood-opacity="0.25"/>
    </filter>
  </defs>

  <!-- Background transparent -->
  <rect width="1200" height="420" fill="none"/>

  <!-- Left icon: stylized F -->
  <g transform="translate(80,60)" filter="url(#drop)">
    <path d="M30 10 C120 10, 145 10, 220 10 C225 10, 238 12, 240 20 L240 46 C238 54, 225 56, 220 56 C120 56, 90 56, 30 56 C14 56, 0 44, 0 28 C0 16, 6 10, 30 10 Z"
          fill="#ffffff"/>
    <path d="M30 78 C120 78, 170 78, 240 78 C245 78, 258 80, 260 88 L260 114 C258 122, 245 124, 240 124 C170 124, 120 124, 30 124 C14 124, 0 112, 0 96 C0 84, 6 78, 30 78 Z"
          fill="#ffffff"/>
    <path d="M30 146 C120 146, 150 146, 200 146 C210 146, 230 148, 235 156 L235 220 C235 240, 210 256, 170 256 C90 256, 40 256, 10 238 C2 232, 0 214, 0 198 C0 182, 6 170, 30 146 Z"
          fill="#ffffff"/>
  </g>

  <!-- Wordmark -->
  <g transform="translate(380,170)">
    <text x="0" y="0" font-family="Segoe UI, Roboto, 'Helvetica Neue', Arial" font-size="72" font-weight="700" fill="#ffffff" letter-spacing="-1">
      FlowstackBD
    </text>
  </g>

  <title>FlowstackBD logo white</title>
</svg>